<?xml version="1.0" encoding="utf-8"?>
<!-- Generator: Adobe Illustrator 21.1.0, SVG Export Plug-In . SVG Version: 6.00 Build 0)  -->
<svg version="1.1" id="icon-" xmlns="http://www.w3.org/2000/svg" xmlns:xlink="http://www.w3.org/1999/xlink" x="0px" y="0px"
	 viewBox="0 0 1120 1280" style="enable-background:new 0 0 1120 1280;" xml:space="preserve">
<style type="text/css">
	.st0{fill:#FFFFFF;}
</style>
<path id="leave" class="st0" d="M1096.6,696.6l-240,240C840.9,952.2,820.5,960,800,960s-40.9-7.8-56.6-23.4
	c-31.2-31.2-31.2-81.9,0-113.1L846.9,720H320c-44.2,0-80-35.8-80-80s35.8-80,80-80h526.9L743.4,456.6c-31.2-31.2-31.2-81.9,0-113.1
	s81.9-31.2,113.1,0l240,240C1127.8,614.7,1127.8,665.3,1096.6,696.6z M560,880c-44.2,0-80,35.8-80,80H160V320h320
	c0,44.2,35.8,80,80,80s80-35.8,80-80V220c0-33.1-26.9-60-60-60H80c-44.2,0-80,35.8-80,80v800c0,44.2,35.8,80,80,80h500
	c33.1,0,60-26.9,60-60V960C640,915.8,604.2,880,560,880z"/>
</svg>
